<?xml version="1.0" encoding="utf-8"?>
<!-- Generator: Adobe Illustrator 19.2.0, SVG Export Plug-In . SVG Version: 6.00 Build 0)  -->
<svg version="1.1" id="Layer_1" xmlns="http://www.w3.org/2000/svg" xmlns:xlink="http://www.w3.org/1999/xlink" x="0px" y="0px"
	 viewBox="0 0 30.5 45.5" style="enable-background:new 0 0 30.5 45.5;" xml:space="preserve">
<style type="text/css">
	.st0{fill:#FFFFFF;}
</style>
<g>
	<path class="st0" d="M15.5,16.8c1.4,1.2,3.2,2.4,5.6,3.4c1.5-1.5,2.6-3,3.4-4.1c0.4-0.6,0.8-1,1-1.3c-2.1-0.3-4.5-0.9-6.6-2.3
		C18.2,13.8,17.1,15.3,15.5,16.8z"/>
	<path class="st0" d="M10,27c1.3,1,3,1.9,5.2,2.7c2.1-0.8,3.8-1.8,5.2-2.7c-1.9-0.3-3.6-0.9-5.2-1.6C13.6,26.1,11.9,26.6,10,27z"/>
	<path class="st0" d="M5.8,22.9c0.8,0.9,1.9,2.3,3.6,3.6c1.9-0.3,3.6-0.8,5.1-1.5c-2.2-1.2-4-2.7-5.5-4.2c-1.2,0.5-2.4,0.9-3.9,1.3
		C5.3,22.3,5.6,22.6,5.8,22.9z"/>
	<path class="st0" d="M15.6,8.7c-0.4-0.8-0.6-1.5-0.8-2.2c-0.2,0.7-0.4,1.4-0.8,2.2c-0.6,1.3-1.5,2.3-2.5,3.1
		c0.8,1.4,1.9,3.1,3.5,4.6c1.6-1.5,2.6-3,3.4-4.3C17.4,11.2,16.4,10.1,15.6,8.7z"/>
	<path class="st0" d="M20.7,20.6c-2.3-1-4.1-2.2-5.6-3.5c-1.4,1.3-3.2,2.5-5.6,3.5c1.5,1.5,3.3,3,5.6,4.1
		C17.4,23.6,19.2,22.1,20.7,20.6z"/>
	<path class="st0" d="M5.8,16c0.8,1.1,1.9,2.6,3.4,4.1c2.3-1,4.1-2.2,5.6-3.4c-1.7-1.6-2.8-3.2-3.6-4.6c-2,1.5-4.4,2.2-6.5,2.5
		C4.9,14.9,5.3,15.4,5.8,16z"/>
	<path class="st0" d="M23.3,27.2c-0.8,0-1.6-0.1-2.3-0.2c-1.3,1-3,2-5.1,2.9c1.3,0.4,2.8,0.8,4.4,1.1c0.9-1,1.6-2,2.2-2.7
		C22.8,27.9,23.1,27.5,23.3,27.2z"/>
	<path class="st0" d="M22.9,28.7c-0.5,0.7-1.2,1.6-2,2.5c0.5,0.1,1.1,0.2,1.6,0.2c0.8-0.7,1.2-3,1.4-4
		C23.7,27.7,23.3,28.1,22.9,28.7z"/>
	<path class="st0" d="M15.9,39.1c0.6,0.2,1.3,0.3,1.9,0.4c0.7-0.4,1.3-1.9,1.6-2.7C18.5,37.7,17.4,38.5,15.9,39.1z"/>
	<path class="st0" d="M10.9,36.9c0.3,0.8,0.9,2.1,1.5,2.6c0.7-0.1,1.3-0.2,1.9-0.4C12.9,38.5,11.8,37.7,10.9,36.9z"/>
	<path class="st0" d="M9.9,31.1c1.7-0.3,3.1-0.7,4.4-1.1c-2.1-0.9-3.8-1.9-5.1-2.9c-0.7,0.1-1.5,0.1-2.3,0.2
		c0.2,0.3,0.5,0.7,0.8,1.1C8.3,29.1,9,30.1,9.9,31.1z"/>
	<path class="st0" d="M7.3,28.7c-0.3-0.5-0.7-0.9-0.9-1.2c0.2,1.1,0.6,3.3,1.3,3.9c0.5-0.1,1.1-0.1,1.6-0.2
		C8.5,30.3,7.8,29.4,7.3,28.7z"/>
	<path class="st0" d="M15.1,35c2-0.9,3.5-2.1,4.8-3.4c-1.8-0.3-3.4-0.8-4.8-1.3c-1.4,0.5-3,0.9-4.8,1.3C11.6,32.8,13.1,34.1,15.1,35
		z"/>
	<path class="st0" d="M4.3,21.6c0.1,0,0.2,0,0.3,0.1c1.5-0.4,2.8-0.8,3.9-1.3c-1.4-1.5-2.5-2.9-3.3-4c-0.4-0.5-0.8-1.1-1.1-1.4
		C4,16.4,3.2,20.3,4.3,21.6L4.3,21.6z"/>
	<path class="st0" d="M6.3,26.7c0.1,0,0.2,0,0.3,0c0.7,0,1.4,0,2-0.1c-1.5-1.3-2.5-2.5-3.2-3.4c-0.2-0.3-0.4-0.5-0.6-0.7
		c0.2,1.1,0.7,3.2,1.3,4.1C6.1,26.6,6.2,26.6,6.3,26.7z"/>
	<path class="st0" d="M10.4,9c0.2,0.6,0.5,1.4,1,2.3c0.9-0.8,1.7-1.7,2.2-2.8c0.9-1.7,1-3.3,1-4.2c0-0.1,0-0.2,0-0.2
		c0-0.2,0-0.3,0-0.3l0,0c0,0,0,0,0,0C13,3.8,9.5,5.1,9.7,7.6C9.9,7.9,10.1,8.3,10.4,9z"/>
	<path class="st0" d="M15.1,39.4c-0.7,0.2-1.4,0.4-2.2,0.5c0.2,0.4,0.6,1,1,0.9c0,0,0.7,0.6,1.1,0.5h0.2c0.4,0,1.1-0.5,1.1-0.5
		c0.4,0.1,0.8-0.5,1-0.9C16.5,39.8,15.8,39.6,15.1,39.4z"/>
	<path class="st0" d="M26,14.9c-0.3,0.3-0.7,0.9-1.1,1.4c-0.8,1.1-1.9,2.6-3.3,4c1.2,0.5,2.5,0.9,3.9,1.3c0.1-0.1,0.2-0.1,0.3-0.1
		v0.1C27.1,20.5,26.3,16.3,26,14.9z"/>
	<path class="st0" d="M15.1,3.7L15.1,3.7c0,0,0,0.1,0,0.3c0,0.1,0,0.2,0,0.2c0,0.8,0.2,2.5,1,4.2c0.6,1.2,1.5,2.3,2.6,3.1
		c0.5-1,0.9-1.9,1.1-2.6c0.3-0.8,0.5-1.3,0.8-1.5c0.1-2.7-3.8-3.9-5.2-3.9L15.1,3.7C15.1,3.7,15.1,3.7,15.1,3.7z"/>
	<path class="st0" d="M10.9,11.6c-0.5-0.9-0.8-1.8-1-2.4c-0.2-0.4-0.3-0.8-0.4-1c-1.2,0.5-5.6,2.4-5.1,6C7,13.7,9.2,12.9,10.9,11.6z
		"/>
	<path class="st0" d="M15.8,35.2c1.1,0.4,2.3,0.7,3.6,0.8c0.8-0.8,1.4-1.6,1.9-2.3c0.4-0.7,0.7-1.5,0.8-1.9
		c-0.6-0.1-1.1-0.1-1.6-0.2C19.3,33,17.8,34.3,15.8,35.2z"/>
	<path class="st0" d="M15.1,35.6c-1.1,0.5-2.4,0.8-3.8,1c1,0.9,2.3,1.7,3.8,2.3c1.5-0.6,2.8-1.4,3.8-2.3
		C17.5,36.4,16.2,36,15.1,35.6z"/>
	<path class="st0" d="M20.4,9.2c-0.3,0.7-0.6,1.6-1.2,2.7c1.7,1.2,4,2,6.8,2.3l0,0.1c0,0,0,0,0,0c0.7-3.8-4-5.7-5.1-6.1
		C20.7,8.4,20.5,8.8,20.4,9.2z"/>
	<path class="st0" d="M10.8,36.1c1.3-0.1,2.6-0.4,3.6-0.8c-2-1-3.5-2.3-4.7-3.6c-0.5,0.1-1,0.2-1.6,0.2c0.2,0.5,0.6,1.4,1,2.3
		C9.6,34.8,10.1,35.4,10.8,36.1z"/>
	<path class="st0" d="M24.8,23.2c-0.7,0.9-1.7,2.1-3.2,3.4c0.7,0.1,1.5,0.1,2.3,0.1c0.1-0.1,0.2-0.1,0.3-0.1l0,0.1
		c0.6-0.8,1.2-3.2,1.4-4.2C25.4,22.6,25.1,22.9,24.8,23.2z"/>
	<path class="st0" d="M15.7,25c1.5,0.7,3.2,1.2,5.1,1.5c1.7-1.4,2.8-2.7,3.6-3.6c0.2-0.3,0.5-0.6,0.6-0.8c-1.4-0.4-2.7-0.8-3.9-1.3
		C19.7,22.3,17.9,23.8,15.7,25z"/>
</g>
</svg>
